<?xml version="1.0" encoding="UTF-8"?>
<svg width="20px" height="18px" viewBox="0 0 20 18" version="1.1" xmlns="http://www.w3.org/2000/svg" xmlns:xlink="http://www.w3.org/1999/xlink">
    <title>Sidebar / Resources Icon</title>
    <g id="Desktop" stroke="none" stroke-width="1" fill="none" fill-rule="evenodd">
        <g id="_supernova_26.4.-MAC---Tips" transform="translate(-23.000000, -673.000000)" fill="#4330DA" fill-rule="nonzero">
            <g id="Tab-Bar">
                <g id="Tab-6" transform="translate(0.000000, 660.000000)">
                    <path d="M25,16.9996 L41,16.9996 L41,15 L25,15 L25,16.9996 Z M42,13 C42.5522847,13 43,13.4477153 43,14 L43,17.9996 C43,18.5518847 42.5522847,18.9996 42,18.9996 L42.00001,30 C42.00001,30.5522847 41.5522947,31 41.00001,31 L24.99999,31 C24.4477053,31 23.99999,30.5522847 23.99999,30 L23.999,18.999 L23.8833789,18.9928723 C23.3860402,18.9351072 23,18.5124358 23,17.9996 L23,14 C23,13.4477153 23.4477153,13 24,13 L42,13 Z M25.99999,29 L40.00001,29 L40.00001,18.9995 L25.99999,18.9995 L25.99999,29 Z M29.6666317,19.9992 L36.3333683,19.9992 C36.8009667,19.9992 37.2400797,20.2045087 37.5514653,20.5541035 C37.8422458,20.8805648 37.99997,21.309674 37.99997,21.7497125 L37.99997,23.9999 C37.99997,24.5521847 37.5522547,24.9999 36.99997,24.9999 L29.00003,24.9999 C28.4477453,24.9999 28.00003,24.5521847 28.00003,23.9999 L28.00003,21.7497125 C28.00003,21.309674 28.1577542,20.8805648 28.4485347,20.5541035 C28.7599203,20.2045087 29.1990333,19.9992 29.6666317,19.9992 Z M30.00003,22.9999 L35.99997,22.9999 L35.99997,21.9992 L30.00003,21.9992 L30.00003,22.9999 Z" id="Sidebar-/-Resources-Icon"></path>
                </g>
            </g>
        </g>
    </g>
</svg>